<?xml version="1.0" standalone="no"?>
<!DOCTYPE svg PUBLIC "-//W3C//DTD SVG 20010904//EN"
 "http://www.w3.org/TR/2001/REC-SVG-20010904/DTD/svg10.dtd">
<svg version="1.0" xmlns="http://www.w3.org/2000/svg"
 width="147.000000pt" height="147.000000pt" viewBox="0 0 147.000000 147.000000"
 preserveAspectRatio="xMidYMid meet">
<metadata>
Created by potrace 1.11, written by Peter Selinger 2001-2013
</metadata>
<g transform="translate(0.000000,147.000000) scale(0.100000,-0.100000)"
fill="#000000" stroke="none">
<path d="M840 1460 c-54 -21 -63 -57 -66 -244 -2 -216 -1 -204 -17 -183 -7 10
-30 24 -51 31 -52 18 -93 6 -132 -39 -28 -31 -33 -33 -44 -19 -21 24 -66 44
-100 44 -36 0 -90 -25 -90 -42 0 -6 -3 -8 -7 -4 -4 4 -8 54 -8 111 -2 82 -6
109 -20 132 -34 52 -46 58 -106 58 -67 0 -94 -18 -109 -74 -5 -20 -9 -205 -8
-426 0 -415 2 -431 52 -540 46 -99 149 -188 267 -231 71 -25 79 -26 191 -30
90 -2 117 1 171 20 88 31 190 102 272 189 39 41 126 134 195 207 182 193 193
221 115 297 -38 36 -52 43 -86 43 -22 0 -50 -5 -62 -12 -25 -13 -140 -109
-145 -120 -2 -5 -9 -8 -16 -8 -10 0 -12 82 -11 368 0 202 -3 381 -7 398 -12
47 -47 74 -104 79 -27 3 -60 0 -74 -5z"/>
</g>
</svg>
