<svg width="116" height="28" viewBox="0 0 116 28" fill="none" xmlns="http://www.w3.org/2000/svg">
<path fill-rule="evenodd" clip-rule="evenodd" d="M17.0665 0.00772259V4.84752H5.8586V11.9797H17.0665V16.8194H5.8586H2.5472C0.0423954 16.8194 0 15.9279 0 13.3383L0.0424042 3.78612C0.0849042 -0.0347807 0.0848961 -0.0347774 4.118 0.00772259C4.1036 0.00772259 17.0665 0.00772259 17.0665 0.00772259Z" fill="#F39000"/>
<path fill-rule="evenodd" clip-rule="evenodd" d="M25.727 0.00769043H34.3874H40.2461V16.8194H34.3874V11.4703H27.7647V6.88519H34.3874V4.84749H25.727V16.8194H20.123L20.0806 2.13039C20.0806 1.02659 21.2268 0.134986 22.5004 0.0501862L25.727 0.00769043V0.00769043Z" fill="#F39000"/>
<path fill-rule="evenodd" clip-rule="evenodd" d="M50.69 6.12099H60.1147H61.6431H63.4261C63.3837 10.6117 60.1147 10.7061 60.1147 10.5931L59.0109 10.7061L61.6431 16.8194H54.7656L50.69 6.12099V6.12099ZM43.0483 0.00769587H60.1147C60.1147 0.00769587 56.4637 0.00769587 50.69 0.00769587H60.1147C61.6006 -0.0348041 63.4686 2.1304 63.4261 4.0833H48.9069V16.8194H43.0483V0.00769587V0.00769587Z" fill="#F39000"/>
<path fill-rule="evenodd" clip-rule="evenodd" d="M64.4448 0.00769043H70.3033L74.6336 10.7061L78.9639 0.00769043H85.0774L78.1998 16.8194H71.0675L64.4448 0.00769043V0.00769043Z" fill="#F39000"/>
<path fill-rule="evenodd" clip-rule="evenodd" d="M86.8604 0.00769043H92.719V16.8194H86.8604V0.00769043Z" fill="#F39000"/>
<path fill-rule="evenodd" clip-rule="evenodd" d="M115.389 16.8194V0.00769043H109.276V8.6682L102.908 1.7907V9.75339L109.276 16.8194H115.389V16.8194ZM95.521 0.00769043H101.38V16.8194H95.521V0.00769043Z" fill="#F39000"/>
<path fill-rule="evenodd" clip-rule="evenodd" d="M115.451 26.0692C115.267 26.2011 115.05 26.3001 114.802 26.3661C114.553 26.4322 114.292 26.4651 114.017 26.4651C113.668 26.4651 113.371 26.4123 113.126 26.3067C112.88 26.201 112.68 26.0532 112.527 25.863C112.374 25.6728 112.263 25.4429 112.195 25.1736C112.126 24.9042 112.091 24.6057 112.091 24.2782C112.091 23.5755 112.262 23.0327 112.603 22.6497C112.943 22.2667 113.433 22.0751 114.072 22.0751C114.352 22.0751 114.595 22.1003 114.802 22.1504C115.008 22.2006 115.193 22.2625 115.356 22.3365L115.166 22.931C115.024 22.857 114.869 22.7989 114.702 22.7567C114.536 22.7144 114.355 22.6933 114.16 22.6933C113.299 22.6933 112.868 23.2215 112.868 24.2782C112.868 24.4789 112.892 24.6729 112.939 24.8605C112.987 25.048 113.063 25.2145 113.169 25.3598C113.275 25.5051 113.413 25.6225 113.585 25.7124C113.757 25.8021 113.967 25.8473 114.215 25.8473C114.437 25.8473 114.631 25.8168 114.798 25.756C114.964 25.6953 115.103 25.6226 115.214 25.5381L115.451 26.0692V26.0692ZM110.19 23.977L110.3 23.153H110.213L109.825 23.9295L107.876 26.3542H107.313V22.194H108.042V24.6507L107.986 25.3797H108.074L108.438 24.6743L110.348 22.194H110.919V26.3542H110.19V23.977V23.977ZM104.333 23.9532C104.45 23.9532 104.561 23.9374 104.666 23.9057C104.772 23.874 104.867 23.829 104.951 23.771C105.036 23.7129 105.103 23.6454 105.154 23.5688C105.204 23.4922 105.229 23.4091 105.229 23.3192C105.229 23.0974 105.154 22.9428 105.003 22.8556C104.852 22.7685 104.595 22.7251 104.23 22.7251C104.109 22.7251 103.986 22.729 103.862 22.7368C103.738 22.7448 103.594 22.7513 103.43 22.7567V23.9532H104.333V23.9532ZM103.43 25.7839C103.546 25.7996 103.66 25.8115 103.771 25.8194C103.882 25.8274 104.019 25.8314 104.183 25.8314C104.6 25.8314 104.901 25.7771 105.086 25.6689C105.271 25.5606 105.363 25.3822 105.363 25.134C105.363 25.0336 105.345 24.9412 105.308 24.8566C105.271 24.7721 105.21 24.7007 105.126 24.6427C105.041 24.5847 104.926 24.5384 104.781 24.5039C104.636 24.4695 104.457 24.4525 104.246 24.4525H103.43V25.7839V25.7839ZM102.701 22.194L103.002 22.1782C103.171 22.1676 103.356 22.1558 103.557 22.1425C103.758 22.1293 103.99 22.1228 104.254 22.1228C104.867 22.1228 105.307 22.2086 105.574 22.3802C105.84 22.552 105.974 22.8069 105.974 23.145C105.974 23.3299 105.909 23.5161 105.78 23.7035C105.65 23.8912 105.445 24.0273 105.165 24.1118V24.199C105.514 24.2675 105.764 24.3838 105.914 24.5475C106.065 24.7114 106.14 24.9279 106.14 25.1973C106.14 25.6148 105.968 25.9225 105.625 26.1207C105.282 26.3187 104.764 26.4176 104.072 26.4176C103.839 26.4176 103.62 26.4117 103.414 26.3979C103.208 26.3848 103.007 26.3701 102.812 26.3542C102.791 26.3542 102.772 26.3533 102.756 26.3503C102.741 26.3473 102.722 26.3463 102.701 26.3463V22.1938V22.194ZM99.5709 22.6933C99.2538 22.6933 99.0056 22.7726 98.8259 22.931C98.6463 23.0895 98.5169 23.3324 98.4376 23.6599V25.5777C98.5592 25.6623 98.6911 25.7282 98.8338 25.7758C98.9764 25.8233 99.1587 25.8473 99.3806 25.8473C99.8085 25.8473 100.144 25.7072 100.387 25.4272C100.63 25.1473 100.752 24.7298 100.752 24.1752C100.752 23.7261 100.662 23.3668 100.482 23.0974C100.303 22.828 99.9987 22.6933 99.5709 22.6933V22.6933ZM97.7085 22.194H98.1999L98.3426 22.7251H98.4138C98.5564 22.5189 98.7415 22.359 98.9686 22.2455C99.1957 22.1321 99.4519 22.0751 99.7373 22.0751C100.339 22.0751 100.789 22.2428 101.084 22.5782C101.38 22.9137 101.528 23.4487 101.528 24.1831C101.528 24.5318 101.479 24.8474 101.382 25.13C101.284 25.4126 101.144 25.6531 100.962 25.8512C100.779 26.0493 100.557 26.201 100.296 26.3067C100.034 26.4123 99.7425 26.4651 99.4203 26.4651C99.3146 26.4651 99.2181 26.4612 99.1311 26.4534C99.0439 26.4454 98.9633 26.4323 98.8892 26.4138C98.8154 26.3953 98.7415 26.3741 98.6674 26.3504C98.5934 26.3266 98.5169 26.2989 98.4376 26.2672V27.9391H97.7085V22.194V22.194ZM95.8067 23.8502C95.8173 23.4276 95.7313 23.1292 95.5491 22.9548C95.3669 22.7805 95.1119 22.6933 94.7845 22.6933C94.4146 22.6933 94.1215 22.7805 93.9048 22.9548C93.6881 23.1292 93.5615 23.4276 93.5244 23.8502H95.8067V23.8502ZM96.3534 26.0137C96.1686 26.151 95.9387 26.2607 95.664 26.3425C95.3893 26.4244 95.0908 26.4651 94.7686 26.4651C94.4199 26.4651 94.1174 26.4138 93.8613 26.3107C93.6051 26.2078 93.395 26.0611 93.2312 25.871C93.0675 25.6806 92.9459 25.4509 92.8667 25.1815C92.7875 24.912 92.748 24.611 92.748 24.2782C92.748 23.5649 92.9235 23.0194 93.2748 22.6418C93.6262 22.264 94.1267 22.0751 94.7766 22.0751C94.9826 22.0751 95.1886 22.0977 95.3946 22.1425C95.6007 22.1874 95.7856 22.2719 95.9493 22.3961C96.1131 22.5202 96.2465 22.6906 96.3495 22.9072C96.4526 23.1238 96.5041 23.4064 96.5041 23.7551C96.5041 23.8396 96.5011 23.9374 96.4961 24.0484C96.4911 24.1593 96.4802 24.2675 96.4643 24.3732H93.4927C93.5032 24.8593 93.6195 25.2264 93.8414 25.4748C94.0633 25.723 94.4409 25.8473 94.9745 25.8473C95.1964 25.8473 95.4078 25.8089 95.6085 25.7323C95.8092 25.6556 95.9651 25.5644 96.0761 25.4588L96.3533 26.0137H96.3534ZM91.9158 26.0692C91.731 26.2011 91.5144 26.3001 91.266 26.3661C91.0178 26.4322 90.7562 26.4651 90.4815 26.4651C90.1328 26.4651 89.8357 26.4123 89.5901 26.3067C89.3443 26.201 89.1448 26.0532 88.9917 25.863C88.8385 25.6728 88.7276 25.4429 88.6589 25.1736C88.5901 24.9042 88.5559 24.6057 88.5559 24.2782C88.5559 23.5755 88.7262 23.0327 89.067 22.6497C89.4078 22.2667 89.8977 22.0751 90.537 22.0751C90.8169 22.0751 91.06 22.1003 91.266 22.1504C91.4719 22.2006 91.657 22.2625 91.8207 22.3365L91.6305 22.931C91.4879 22.857 91.3334 22.7989 91.167 22.7567C91.0006 22.7144 90.8196 22.6933 90.624 22.6933C89.7631 22.6933 89.3324 23.2215 89.3324 24.2782C89.3324 24.4789 89.3562 24.6729 89.4037 24.8605C89.4514 25.048 89.528 25.2145 89.6335 25.3598C89.7392 25.5051 89.8779 25.6225 90.0496 25.7124C90.2214 25.8021 90.4313 25.8473 90.6797 25.8473C90.9015 25.8473 91.0956 25.8168 91.262 25.756C91.4285 25.6953 91.5672 25.6226 91.6781 25.5381L91.9158 26.0692V26.0692ZM82.5967 20.7122C82.6231 20.8284 82.6601 20.9207 82.7076 20.9895C82.7551 21.0581 82.8107 21.1098 82.8741 21.1441C82.9375 21.1784 83.0101 21.1995 83.092 21.2073C83.1739 21.2153 83.2597 21.2193 83.3495 21.2193C83.4393 21.2193 83.5252 21.2143 83.6071 21.2034C83.689 21.1929 83.7616 21.1691 83.825 21.1322C83.8883 21.0952 83.9438 21.045 83.9914 20.9815C84.0389 20.9182 84.0759 20.8309 84.1024 20.72L84.6729 20.8864C84.6147 21.1981 84.4629 21.4175 84.2172 21.5443C83.9716 21.671 83.6771 21.7343 83.3336 21.7343C83.1698 21.7343 83.0114 21.7211 82.8582 21.6947C82.7051 21.6683 82.5663 21.6235 82.4421 21.5601C82.318 21.4966 82.2123 21.4135 82.1251 21.3103C82.038 21.2072 81.9786 21.0767 81.9469 20.9182L82.5967 20.7122V20.7122ZM84.348 23.977L84.4589 23.153H84.3717L83.9835 23.9295L82.0341 26.3542H81.4715V22.194H82.2005V24.6507L82.145 25.3797H82.2322L82.5967 24.6743L84.5065 22.194H85.077V26.3542H84.348V23.977V23.977ZM79.3477 22.194H80.0767V26.3542H79.3477V22.194ZM76.0908 23.7868C76.2598 23.7604 76.417 23.7432 76.5623 23.7353C76.7075 23.7273 76.8382 23.7234 76.9544 23.7234C77.261 23.7234 77.5184 23.7551 77.7272 23.8186C77.9359 23.8819 78.1036 23.9691 78.2303 24.08C78.3571 24.191 78.447 24.3218 78.4998 24.4724C78.5526 24.6229 78.579 24.7853 78.579 24.9597C78.579 25.4616 78.4258 25.8275 78.1194 26.0571C77.813 26.2869 77.3137 26.4019 76.6216 26.4019C76.3998 26.4019 76.1858 26.3989 75.9799 26.3939C75.7737 26.3889 75.5677 26.3779 75.3617 26.3622V22.1938H76.0908V23.7867V23.7868ZM76.0908 25.7364C76.3126 25.7679 76.5397 25.7839 76.7723 25.7839C77.1527 25.7839 77.4194 25.7176 77.5726 25.5856C77.7258 25.4535 77.8023 25.2659 77.8023 25.0229C77.8023 24.8115 77.7272 24.6347 77.5766 24.4921C77.4259 24.3494 77.1658 24.2782 76.796 24.2782C76.6956 24.2782 76.5833 24.2822 76.4592 24.2901C76.3352 24.2981 76.2122 24.3152 76.0908 24.3416V25.7364ZM73.238 24.5397H71.146V26.3542H70.4168V22.194H71.146V23.8898H73.238V22.194H73.967V26.3542H73.238V24.5397ZM68.2931 22.812H66.2485V26.3542H65.5195V22.194H69.022V26.3542H68.2931V22.812V22.812ZM62.6034 24.8249L62.8491 25.6253H62.952L63.1502 24.817L64.0139 22.194H64.7588L63.3958 25.9582C63.2954 26.2171 63.1937 26.468 63.0906 26.7109C62.9877 26.9539 62.874 27.1693 62.75 27.3567C62.6259 27.5443 62.4884 27.6949 62.3379 27.8085C62.1874 27.9221 62.0143 27.9788 61.8188 27.9788C61.6075 27.9788 61.428 27.955 61.28 27.9075L61.3989 27.2895C61.4781 27.3159 61.5574 27.3291 61.6365 27.3291C61.7422 27.3291 61.8387 27.3159 61.9258 27.2895C62.013 27.2631 62.0936 27.2156 62.1676 27.1469C62.2416 27.0782 62.3089 26.9817 62.3696 26.8576C62.4303 26.7334 62.4872 26.5736 62.5399 26.378L60.6777 22.194H61.5415L62.6034 24.8249V24.8249ZM60.6144 22.812H59.1721V26.3542H58.443V22.812H57.0008V22.194H60.6144V22.812ZM56.6442 26.0692C56.4593 26.2011 56.2427 26.3001 55.9944 26.3661C55.7461 26.4322 55.4846 26.4651 55.2098 26.4651C54.8612 26.4651 54.5641 26.4123 54.3183 26.3067C54.0727 26.201 53.8732 26.0532 53.7201 25.863C53.5669 25.6728 53.456 25.4429 53.3873 25.1736C53.3186 24.9042 53.2842 24.6057 53.2842 24.2782C53.2842 23.5755 53.4546 23.0327 53.7954 22.6497C54.1361 22.2667 54.6262 22.0751 55.2653 22.0751C55.5453 22.0751 55.7883 22.1003 55.9944 22.1504C56.2004 22.2006 56.3854 22.2625 56.5491 22.3365L56.359 22.931C56.2163 22.857 56.0618 22.7989 55.8954 22.7567C55.729 22.7144 55.548 22.6933 55.3525 22.6933C54.4914 22.6933 54.0608 23.2215 54.0608 24.2782C54.0608 24.4789 54.0846 24.6729 54.1322 24.8605C54.1797 25.048 54.2563 25.2145 54.3619 25.3598C54.4676 25.5051 54.6063 25.6225 54.778 25.7124C54.9496 25.8021 55.1597 25.8473 55.4079 25.8473C55.6299 25.8473 55.824 25.8168 55.9904 25.756C56.1569 25.6953 56.2955 25.6226 56.4065 25.5381L56.6442 26.0692V26.0692ZM49.0606 24.2782C49.0606 24.4736 49.083 24.6651 49.1279 24.8527C49.1728 25.0403 49.2455 25.208 49.3457 25.356C49.4462 25.5038 49.5757 25.6225 49.7341 25.7124C49.8925 25.8021 50.0881 25.8473 50.3205 25.8473C51.1447 25.8473 51.5568 25.3242 51.5568 24.2782C51.5568 24.0721 51.5343 23.874 51.4893 23.6839C51.4444 23.4937 51.3731 23.326 51.2754 23.1806C51.1777 23.0353 51.0495 22.9178 50.8911 22.828C50.7325 22.7381 50.5424 22.6933 50.3205 22.6933C49.9085 22.6933 49.5954 22.824 49.3815 23.0854C49.1675 23.3469 49.0606 23.7446 49.0606 24.2782V24.2782ZM48.2839 24.2782C48.2839 23.9347 48.3289 23.6269 48.4186 23.3549C48.5085 23.0828 48.6406 22.8517 48.8148 22.6616C48.9892 22.4713 49.2019 22.326 49.4528 22.2256C49.7038 22.1253 49.9903 22.0751 50.3125 22.0751C50.6507 22.0751 50.9465 22.1306 51.2001 22.2416C51.4537 22.3526 51.665 22.5071 51.8341 22.7052C52.0031 22.9033 52.1286 23.1357 52.2105 23.4025C52.2924 23.6693 52.3333 23.9612 52.3333 24.2782C52.3333 24.6162 52.2871 24.92 52.1946 25.1894C52.1021 25.4589 51.9701 25.6887 51.7984 25.8789C51.6267 26.0692 51.4154 26.2143 51.1645 26.3148C50.9135 26.4152 50.6296 26.4651 50.3125 26.4651C49.9639 26.4651 49.6629 26.4098 49.4092 26.2989C49.1556 26.188 48.9456 26.0347 48.7792 25.8392C48.6128 25.6438 48.4886 25.4126 48.4067 25.1458C48.3248 24.879 48.2839 24.5899 48.2839 24.2782V24.2782ZM46.2157 25.7364V22.812H44.8051C44.7892 23.0498 44.7655 23.3034 44.7339 23.573C44.702 23.8423 44.6586 24.1078 44.6031 24.3692C44.5475 24.6307 44.4829 24.8802 44.4089 25.1181C44.3349 25.3559 44.2477 25.5619 44.1474 25.7364H46.2157ZM47.6182 27.4004H47.119L46.9923 26.3542H43.4896L43.347 27.4004H42.8636V25.7364H43.3946C43.4474 25.6728 43.5147 25.5619 43.5966 25.4035C43.6785 25.245 43.7591 25.0243 43.8383 24.7417C43.9177 24.4592 43.9876 24.1091 44.0483 23.6917C44.109 23.2745 44.1421 22.7751 44.1474 22.194H46.9448V25.7364H47.6182V27.4004V27.4004ZM39.1312 23.977L39.2421 23.153H39.155L38.7666 23.9295L36.8173 26.3542H36.2547V22.194H36.9837V24.6507L36.9282 25.3797H37.0154L37.3799 24.6743L39.2897 22.194H39.8602V26.3542H39.1312V23.977V23.977ZM30.0736 20.7122C30.1 20.8284 30.137 20.9207 30.1845 20.9895C30.2321 21.0581 30.2876 21.1098 30.351 21.1441C30.4143 21.1784 30.4869 21.1995 30.5689 21.2073C30.6508 21.2153 30.7366 21.2193 30.8264 21.2193C30.9162 21.2193 31.002 21.2143 31.0839 21.2034C31.1659 21.1929 31.2385 21.1691 31.3019 21.1322C31.3653 21.0952 31.4208 21.045 31.4683 20.9815C31.5158 20.9182 31.5528 20.8309 31.5792 20.72L32.1498 20.8864C32.0917 21.1981 31.9398 21.4175 31.6942 21.5443C31.4485 21.671 31.154 21.7343 30.8106 21.7343C30.6468 21.7343 30.4883 21.7211 30.3351 21.6947C30.1819 21.6683 30.0432 21.6235 29.9191 21.5601C29.7949 21.4966 29.6892 21.4135 29.602 21.3103C29.515 21.2072 29.4555 21.0767 29.4238 20.9182L30.0736 20.7122V20.7122ZM31.825 23.977L31.9359 23.153H31.8487L31.4603 23.9295L29.5109 26.3542H28.9483V22.194H29.6774V24.6507L29.6219 25.3797H29.7091L30.0736 24.6743L31.9834 22.194H32.554V26.3542H31.825V23.977V23.977ZM26.8246 22.194H27.5536V26.3542H26.8246V22.194ZM23.5676 23.7868C23.7367 23.7604 23.8938 23.7432 24.0391 23.7353C24.1844 23.7273 24.3152 23.7234 24.4315 23.7234C24.7378 23.7234 24.9954 23.7551 25.2041 23.8186C25.4127 23.8819 25.5805 23.9691 25.7073 24.08C25.834 24.191 25.9238 24.3218 25.9767 24.4724C26.0296 24.6229 26.0559 24.7853 26.0559 24.9597C26.0559 25.4616 25.9027 25.8275 25.5964 26.0571C25.2899 26.2869 24.7907 26.4019 24.0987 26.4019C23.8767 26.4019 23.6628 26.3989 23.4567 26.3939C23.2507 26.3889 23.0447 26.3779 22.8386 26.3622V22.1938H23.5676V23.7867V23.7868ZM23.5676 25.7364C23.7895 25.7679 24.0168 25.7839 24.2491 25.7839C24.6295 25.7839 24.8964 25.7176 25.0495 25.5856C25.2027 25.4535 25.2794 25.2659 25.2794 25.0229C25.2794 24.8115 25.2041 24.6347 25.0535 24.4921C24.9029 24.3494 24.6428 24.2782 24.2729 24.2782C24.1725 24.2782 24.0604 24.2822 23.9362 24.2901C23.812 24.2981 23.6892 24.3152 23.5676 24.3416V25.7364ZM20.7149 24.5397H18.6228V26.3542H17.8938V22.194H18.6228V23.8898H20.7149V22.194H21.4439V26.3542H20.7149V24.5397ZM17.1964 22.812H15.7542V26.3542H15.0252V22.812H13.5829V22.194H17.1964V22.812V22.812ZM13.2262 26.0692C13.0413 26.2011 12.8247 26.3001 12.5764 26.3661C12.3281 26.4322 12.0667 26.4651 11.792 26.4651C11.4432 26.4651 11.1461 26.4123 10.9005 26.3067C10.6548 26.201 10.4554 26.0532 10.3021 25.863C10.1489 25.6728 10.038 25.4429 9.9693 25.1736C9.9006 24.9042 9.86639 24.6057 9.86639 24.2782C9.86639 23.5755 10.0367 23.0327 10.3775 22.6497C10.7182 22.2667 11.2082 22.0751 11.8474 22.0751C12.1275 22.0751 12.3705 22.1003 12.5764 22.1504C12.7825 22.2006 12.9674 22.2625 13.1312 22.3365L12.941 22.931C12.7983 22.857 12.6438 22.7989 12.4775 22.7567C12.311 22.7144 12.13 22.6933 11.9346 22.6933C11.0735 22.6933 10.6429 23.2215 10.6429 24.2782C10.6429 24.4789 10.6667 24.6729 10.7143 24.8605C10.7618 25.048 10.8384 25.2145 10.9441 25.3598C11.0497 25.5051 11.1884 25.6225 11.3601 25.7124C11.5318 25.8021 11.7418 25.8473 11.9901 25.8473C12.2119 25.8473 12.4061 25.8168 12.5725 25.756C12.7389 25.6953 12.8776 25.6226 12.9886 25.5381L13.2262 26.0692V26.0692ZM8.18629 23.8502C8.19689 23.4276 8.11099 23.1292 7.92879 22.9548C7.74659 22.7805 7.49159 22.6933 7.16409 22.6933C6.79429 22.6933 6.5011 22.7805 6.2845 22.9548C6.0678 23.1292 5.9411 23.4276 5.9041 23.8502H8.18629V23.8502ZM8.73309 26.0137C8.54819 26.151 8.3184 26.2607 8.0437 26.3425C7.769 26.4244 7.4705 26.4651 7.1483 26.4651C6.7996 26.4651 6.49709 26.4138 6.24089 26.3107C5.98469 26.2078 5.7747 26.0611 5.6109 25.871C5.4471 25.6806 5.3256 25.4509 5.2464 25.1815C5.1672 24.912 5.12749 24.611 5.12749 24.2782C5.12749 23.5649 5.3032 23.0194 5.6545 22.6418C6.0058 22.264 6.5064 22.0751 7.1561 22.0751C7.3622 22.0751 7.56829 22.0977 7.77429 22.1425C7.98039 22.1874 8.16519 22.2719 8.32899 22.3961C8.49279 22.5202 8.62619 22.6906 8.72919 22.9072C8.83219 23.1238 8.8837 23.4064 8.8837 23.7551C8.8837 23.8396 8.88069 23.9374 8.87569 24.0484C8.87069 24.1593 8.85979 24.2675 8.84389 24.3732H5.8723C5.8829 24.8593 5.99909 25.2264 6.22099 25.4748C6.44289 25.723 6.82059 25.8473 7.35419 25.8473C7.57609 25.8473 7.7874 25.8089 7.9881 25.7323C8.1889 25.6556 8.34469 25.5644 8.45569 25.4588L8.733 26.0137H8.73309ZM0.792801 20.8073V22.5585C0.792801 22.9125 0.877394 23.1859 1.04649 23.3787C1.21549 23.5716 1.4823 23.668 1.8468 23.668C2.1162 23.668 2.36579 23.6362 2.59569 23.573C2.82549 23.5095 3.0117 23.425 3.1543 23.3192V20.8073H3.94679V26.3542H3.1543V23.9929C3.0011 24.0774 2.79639 24.1579 2.54019 24.2346C2.28399 24.3111 1.9895 24.3493 1.6566 24.3493C1.4083 24.3493 1.1825 24.3204 0.979095 24.2622C0.775695 24.2043 0.6014 24.1091 0.4561 23.977C0.3108 23.845 0.198593 23.6772 0.119293 23.4739C0.0399932 23.2703 0.000488281 23.0208 0.000488281 22.7251V20.8073H0.792801V20.8073Z" fill="#F39000"/>
</svg>
